<?xml version="1.0" encoding="UTF-8" standalone="no"?>
<!DOCTYPE svg PUBLIC "-//W3C//DTD SVG 1.1//EN"
 "http://www.w3.org/Graphics/SVG/1.1/DTD/svg11.dtd">
<!-- Generated by graphviz version 2.43.0 (0)
 -->
<!-- Title: G Pages: 1 -->
<svg width="1907pt" height="620pt"
 viewBox="0.00 0.00 1907.15 620.00" xmlns="http://www.w3.org/2000/svg" xmlns:xlink="http://www.w3.org/1999/xlink">
<g id="graph0" class="graph" transform="scale(1 1) rotate(0) translate(4 616)">
<title>G</title>
<polygon fill="white" stroke="transparent" points="-4,4 -4,-616 1903.15,-616 1903.15,4 -4,4"/>
<!-- node0 -->
<g id="node1" class="node">
<title>node0</title>
<ellipse fill="none" stroke="black" cx="1775.24" cy="-522" rx="92.88" ry="18"/>
<text text-anchor="middle" x="1775.24" y="-518.3" font-family="Times,serif" font-size="14.00">healer&#45;farm&#45;foods</text>
</g>
<!-- node13 -->
<g id="node14" class="node">
<title>node13</title>
<ellipse fill="none" stroke="black" cx="1068.24" cy="-378" rx="54.69" ry="18"/>
<text text-anchor="middle" x="1068.24" y="-374.3" font-family="Times,serif" font-size="14.00">healer&#45;lib</text>
</g>
<!-- node0&#45;&gt;node13 -->
<g id="edge1" class="edge">
<title>node0&#45;&gt;node13</title>
<path fill="none" stroke="black" d="M1738.08,-505.48C1688.26,-485.32 1596.65,-450.54 1515.24,-432 1380.75,-401.37 1219.21,-387.78 1131.87,-382.3"/>
<polygon fill="black" stroke="black" points="1132.04,-378.8 1121.85,-381.68 1131.61,-385.79 1132.04,-378.8"/>
</g>
<!-- node16 -->
<g id="node17" class="node">
<title>node16</title>
<ellipse fill="none" stroke="black" cx="775.24" cy="-306" rx="74.19" ry="18"/>
<text text-anchor="middle" x="775.24" y="-302.3" font-family="Times,serif" font-size="14.00">animal&#45;assets</text>
</g>
<!-- node0&#45;&gt;node16 -->
<g id="edge2" class="edge">
<title>node0&#45;&gt;node16</title>
<path fill="none" stroke="black" d="M1747.35,-504.79C1711.93,-484.87 1648.41,-451.35 1590.24,-432 1278.19,-328.22 1183.4,-373.2 858.24,-324 851.69,-323.01 844.88,-321.84 838.1,-320.59"/>
<polygon fill="black" stroke="black" points="838.71,-317.14 828.23,-318.71 837.4,-324.02 838.71,-317.14"/>
</g>
<!-- node22 -->
<g id="node23" class="node">
<title>node22</title>
<ellipse fill="none" stroke="black" cx="1427.24" cy="-450" rx="79.09" ry="18"/>
<text text-anchor="middle" x="1427.24" y="-446.3" font-family="Times,serif" font-size="14.00">healer&#45;farm&#45;lib</text>
</g>
<!-- node0&#45;&gt;node22 -->
<g id="edge3" class="edge">
<title>node0&#45;&gt;node22</title>
<path fill="none" stroke="black" d="M1713.03,-508.49C1651.51,-496.11 1557.66,-477.23 1494.46,-464.52"/>
<polygon fill="black" stroke="black" points="1495.08,-461.08 1484.59,-462.54 1493.7,-467.94 1495.08,-461.08"/>
</g>
<!-- node1 -->
<g id="node2" class="node">
<title>node1</title>
<ellipse fill="none" stroke="black" cx="1251.24" cy="-306" rx="44.39" ry="18"/>
<text text-anchor="middle" x="1251.24" y="-302.3" font-family="Times,serif" font-size="14.00">english</text>
</g>
<!-- node2 -->
<g id="node3" class="node">
<title>node2</title>
<ellipse fill="none" stroke="black" cx="1535.24" cy="-90" rx="61.19" ry="18"/>
<text text-anchor="middle" x="1535.24" y="-86.3" font-family="Times,serif" font-size="14.00">ts&#45;kata&#45;util</text>
</g>
<!-- node11 -->
<g id="node12" class="node">
<title>node11</title>
<ellipse fill="none" stroke="black" cx="1535.24" cy="-18" rx="79.09" ry="18"/>
<text text-anchor="middle" x="1535.24" y="-14.3" font-family="Times,serif" font-size="14.00">image&#45;coloring</text>
</g>
<!-- node2&#45;&gt;node11 -->
<g id="edge6" class="edge">
<title>node2&#45;&gt;node11</title>
<path fill="none" stroke="black" d="M1535.24,-71.7C1535.24,-63.98 1535.24,-54.71 1535.24,-46.11"/>
<polygon fill="black" stroke="black" points="1538.74,-46.1 1535.24,-36.1 1531.74,-46.1 1538.74,-46.1"/>
</g>
<!-- node14 -->
<g id="node15" class="node">
<title>node14</title>
<ellipse fill="none" stroke="black" cx="1394.24" cy="-18" rx="44.39" ry="18"/>
<text text-anchor="middle" x="1394.24" y="-14.3" font-family="Times,serif" font-size="14.00">ratchet</text>
</g>
<!-- node2&#45;&gt;node14 -->
<g id="edge4" class="edge">
<title>node2&#45;&gt;node14</title>
<path fill="none" stroke="black" d="M1505.34,-74.15C1483.46,-63.29 1453.66,-48.5 1430.43,-36.97"/>
<polygon fill="black" stroke="black" points="1431.75,-33.72 1421.24,-32.4 1428.64,-39.99 1431.75,-33.72"/>
</g>
<!-- node15 -->
<g id="node16" class="node">
<title>node15</title>
<ellipse fill="none" stroke="black" cx="1728.24" cy="-18" rx="96.38" ry="18"/>
<text text-anchor="middle" x="1728.24" y="-14.3" font-family="Times,serif" font-size="14.00">define&#45;assets&#45;from</text>
</g>
<!-- node2&#45;&gt;node15 -->
<g id="edge5" class="edge">
<title>node2&#45;&gt;node15</title>
<path fill="none" stroke="black" d="M1572.45,-75.5C1602.06,-64.76 1643.83,-49.61 1676.67,-37.71"/>
<polygon fill="black" stroke="black" points="1677.9,-40.98 1686.11,-34.28 1675.52,-34.4 1677.9,-40.98"/>
</g>
<!-- node3 -->
<g id="node4" class="node">
<title>node3</title>
<ellipse fill="none" stroke="black" cx="498.24" cy="-522" rx="100.18" ry="18"/>
<text text-anchor="middle" x="498.24" y="-518.3" font-family="Times,serif" font-size="14.00">healer&#45;sea&#45;enemies</text>
</g>
<!-- node9 -->
<g id="node10" class="node">
<title>node9</title>
<ellipse fill="none" stroke="black" cx="636.24" cy="-450" rx="73.39" ry="18"/>
<text text-anchor="middle" x="636.24" y="-446.3" font-family="Times,serif" font-size="14.00">healer&#45;sea&#45;lib</text>
</g>
<!-- node3&#45;&gt;node9 -->
<g id="edge9" class="edge">
<title>node3&#45;&gt;node9</title>
<path fill="none" stroke="black" d="M530.25,-504.76C550.08,-494.7 575.71,-481.7 596.8,-471.01"/>
<polygon fill="black" stroke="black" points="598.49,-474.07 605.83,-466.43 595.33,-467.83 598.49,-474.07"/>
</g>
<!-- node3&#45;&gt;node13 -->
<g id="edge7" class="edge">
<title>node3&#45;&gt;node13</title>
<path fill="none" stroke="black" d="M568.75,-509.21C619.9,-499.93 690.48,-485.65 751.24,-468 795,-455.29 803.67,-445.34 847.24,-432 903.01,-414.93 968.06,-399.9 1013.08,-390.25"/>
<polygon fill="black" stroke="black" points="1013.88,-393.66 1022.94,-388.15 1012.43,-386.81 1013.88,-393.66"/>
</g>
<!-- node3&#45;&gt;node16 -->
<g id="edge8" class="edge">
<title>node3&#45;&gt;node16</title>
<path fill="none" stroke="black" d="M505.84,-503.84C515.07,-484.51 532.18,-453.05 554.24,-432 605.67,-382.93 679.99,-346.08 727.96,-325.53"/>
<polygon fill="black" stroke="black" points="729.34,-328.75 737.19,-321.64 726.62,-322.3 729.34,-328.75"/>
</g>
<!-- node4 -->
<g id="node5" class="node">
<title>node4</title>
<ellipse fill="none" stroke="black" cx="1127.24" cy="-522" rx="86.38" ry="18"/>
<text text-anchor="middle" x="1127.24" y="-518.3" font-family="Times,serif" font-size="14.00">healer&#45;zoo&#45;foods</text>
</g>
<!-- node4&#45;&gt;node13 -->
<g id="edge10" class="edge">
<title>node4&#45;&gt;node13</title>
<path fill="none" stroke="black" d="M1138.34,-504.01C1148.98,-485.4 1161.73,-455.1 1149.24,-432 1141.03,-416.82 1126.38,-405.29 1111.77,-396.93"/>
<polygon fill="black" stroke="black" points="1113.21,-393.73 1102.73,-392.12 1109.92,-399.91 1113.21,-393.73"/>
</g>
<!-- node4&#45;&gt;node16 -->
<g id="edge11" class="edge">
<title>node4&#45;&gt;node16</title>
<path fill="none" stroke="black" d="M1079,-506.95C1050.76,-497.77 1014.94,-484.44 985.24,-468 965.88,-457.28 856.69,-371.48 803.87,-329.7"/>
<polygon fill="black" stroke="black" points="805.91,-326.85 795.89,-323.39 801.56,-332.34 805.91,-326.85"/>
</g>
<!-- node26 -->
<g id="node27" class="node">
<title>node26</title>
<ellipse fill="none" stroke="black" cx="1067.24" cy="-450" rx="73.39" ry="18"/>
<text text-anchor="middle" x="1067.24" y="-446.3" font-family="Times,serif" font-size="14.00">healer&#45;zoo&#45;lib</text>
</g>
<!-- node4&#45;&gt;node26 -->
<g id="edge12" class="edge">
<title>node4&#45;&gt;node26</title>
<path fill="none" stroke="black" d="M1112.72,-504.05C1105.35,-495.46 1096.26,-484.86 1088.15,-475.4"/>
<polygon fill="black" stroke="black" points="1090.8,-473.1 1081.63,-467.79 1085.48,-477.66 1090.8,-473.1"/>
</g>
<!-- node5 -->
<g id="node6" class="node">
<title>node5</title>
<ellipse fill="none" stroke="black" cx="1361.24" cy="-162" rx="89.08" ry="18"/>
<text text-anchor="middle" x="1361.24" y="-158.3" font-family="Times,serif" font-size="14.00">game&#45;engine&#45;rpg</text>
</g>
<!-- node5&#45;&gt;node2 -->
<g id="edge13" class="edge">
<title>node5&#45;&gt;node2</title>
<path fill="none" stroke="black" d="M1399.43,-145.64C1426.45,-134.77 1462.77,-120.16 1491.05,-108.78"/>
<polygon fill="black" stroke="black" points="1492.72,-111.88 1500.69,-104.9 1490.1,-105.39 1492.72,-111.88"/>
</g>
<!-- node23 -->
<g id="node24" class="node">
<title>node23</title>
<ellipse fill="none" stroke="black" cx="1243.24" cy="-90" rx="70.39" ry="18"/>
<text text-anchor="middle" x="1243.24" y="-86.3" font-family="Times,serif" font-size="14.00">game&#45;engine</text>
</g>
<!-- node5&#45;&gt;node23 -->
<g id="edge14" class="edge">
<title>node5&#45;&gt;node23</title>
<path fill="none" stroke="black" d="M1333.87,-144.76C1317.52,-135.07 1296.57,-122.64 1278.93,-112.17"/>
<polygon fill="black" stroke="black" points="1280.44,-109 1270.05,-106.91 1276.87,-115.02 1280.44,-109"/>
</g>
<!-- node6 -->
<g id="node7" class="node">
<title>node6</title>
<ellipse fill="none" stroke="black" cx="94.24" cy="-522" rx="94.48" ry="18"/>
<text text-anchor="middle" x="94.24" y="-518.3" font-family="Times,serif" font-size="14.00">healer&#45;sea&#45;friends</text>
</g>
<!-- node6&#45;&gt;node9 -->
<g id="edge17" class="edge">
<title>node6&#45;&gt;node9</title>
<path fill="none" stroke="black" d="M161.57,-509.39C173.75,-507.46 186.36,-505.58 198.24,-504 353.69,-483.34 394.13,-491.06 549.24,-468 556.84,-466.87 564.78,-465.53 572.65,-464.12"/>
<polygon fill="black" stroke="black" points="573.34,-467.55 582.54,-462.29 572.07,-460.66 573.34,-467.55"/>
</g>
<!-- node6&#45;&gt;node13 -->
<g id="edge15" class="edge">
<title>node6&#45;&gt;node13</title>
<path fill="none" stroke="black" d="M153.14,-507.87C240.36,-488.83 409.2,-453.47 554.24,-432 716.07,-408.05 908.16,-391.33 1005.28,-383.69"/>
<polygon fill="black" stroke="black" points="1005.82,-387.16 1015.51,-382.89 1005.27,-380.18 1005.82,-387.16"/>
</g>
<!-- node6&#45;&gt;node16 -->
<g id="edge16" class="edge">
<title>node6&#45;&gt;node16</title>
<path fill="none" stroke="black" d="M129.51,-505.18C200.87,-473.69 368.03,-402.55 514.24,-360 577.64,-341.55 651.52,-327.19 704.46,-318.1"/>
<polygon fill="black" stroke="black" points="705.15,-321.53 714.43,-316.41 703.98,-314.63 705.15,-321.53"/>
</g>
<!-- node7 -->
<g id="node8" class="node">
<title>node7</title>
<ellipse fill="none" stroke="black" cx="716.24" cy="-522" rx="100.18" ry="18"/>
<text text-anchor="middle" x="716.24" y="-518.3" font-family="Times,serif" font-size="14.00">healer&#45;zoo&#45;enemies</text>
</g>
<!-- node7&#45;&gt;node13 -->
<g id="edge18" class="edge">
<title>node7&#45;&gt;node13</title>
<path fill="none" stroke="black" d="M754.92,-505.4C821.36,-478.6 956.65,-424.02 1025.68,-396.17"/>
<polygon fill="black" stroke="black" points="1027,-399.41 1034.96,-392.43 1024.38,-392.92 1027,-399.41"/>
</g>
<!-- node7&#45;&gt;node16 -->
<g id="edge19" class="edge">
<title>node7&#45;&gt;node16</title>
<path fill="none" stroke="black" d="M720.97,-503.85C731.2,-466.75 755.44,-378.81 767.77,-334.1"/>
<polygon fill="black" stroke="black" points="771.21,-334.8 770.49,-324.23 764.46,-332.94 771.21,-334.8"/>
</g>
<!-- node7&#45;&gt;node26 -->
<g id="edge20" class="edge">
<title>node7&#45;&gt;node26</title>
<path fill="none" stroke="black" d="M780.62,-508.16C843.65,-495.59 939.16,-476.54 1002.36,-463.94"/>
<polygon fill="black" stroke="black" points="1003.09,-467.36 1012.21,-461.97 1001.72,-460.5 1003.09,-467.36"/>
</g>
<!-- node8 -->
<g id="node9" class="node">
<title>node8</title>
<ellipse fill="none" stroke="black" cx="293.24" cy="-522" rx="86.38" ry="18"/>
<text text-anchor="middle" x="293.24" y="-518.3" font-family="Times,serif" font-size="14.00">healer&#45;sea&#45;foods</text>
</g>
<!-- node8&#45;&gt;node9 -->
<g id="edge23" class="edge">
<title>node8&#45;&gt;node9</title>
<path fill="none" stroke="black" d="M352.6,-508.89C413.84,-496.39 509.06,-476.95 572.03,-464.1"/>
<polygon fill="black" stroke="black" points="572.75,-467.53 581.85,-462.1 571.35,-460.67 572.75,-467.53"/>
</g>
<!-- node8&#45;&gt;node13 -->
<g id="edge21" class="edge">
<title>node8&#45;&gt;node13</title>
<path fill="none" stroke="black" d="M355.11,-509.42C366.45,-507.48 378.18,-505.58 389.24,-504 534.85,-483.16 587.02,-534.48 718.24,-468 737.6,-458.19 732.17,-442.35 751.24,-432 773.45,-419.95 922.94,-398.42 1008.47,-386.85"/>
<polygon fill="black" stroke="black" points="1009.12,-390.3 1018.57,-385.49 1008.19,-383.36 1009.12,-390.3"/>
</g>
<!-- node8&#45;&gt;node16 -->
<g id="edge22" class="edge">
<title>node8&#45;&gt;node16</title>
<path fill="none" stroke="black" d="M319.63,-504.72C371.33,-473.34 490.28,-403.75 597.24,-360 635.27,-344.45 679.54,-331.25 714.42,-321.91"/>
<polygon fill="black" stroke="black" points="715.68,-325.2 724.46,-319.26 713.89,-318.43 715.68,-325.2"/>
</g>
<!-- node9&#45;&gt;node13 -->
<g id="edge24" class="edge">
<title>node9&#45;&gt;node13</title>
<path fill="none" stroke="black" d="M690.94,-437.96C701.64,-435.9 712.78,-433.82 723.24,-432 823.18,-414.57 939.94,-397.27 1008.79,-387.39"/>
<polygon fill="black" stroke="black" points="1009.6,-390.81 1019.01,-385.92 1008.61,-383.88 1009.6,-390.81"/>
</g>
<!-- node21 -->
<g id="node22" class="node">
<title>node21</title>
<ellipse fill="none" stroke="black" cx="1361.24" cy="-306" rx="48.19" ry="18"/>
<text text-anchor="middle" x="1361.24" y="-302.3" font-family="Times,serif" font-size="14.00">survival</text>
</g>
<!-- node9&#45;&gt;node21 -->
<g id="edge25" class="edge">
<title>node9&#45;&gt;node21</title>
<path fill="none" stroke="black" d="M682.63,-435.91C752.05,-416.76 887.32,-381.08 1004.24,-360 1136.4,-336.17 1172.75,-351.29 1304.24,-324 1308.17,-323.19 1312.21,-322.23 1316.25,-321.19"/>
<polygon fill="black" stroke="black" points="1317.48,-324.48 1326.21,-318.47 1315.64,-317.73 1317.48,-324.48"/>
</g>
<!-- node10 -->
<g id="node11" class="node">
<title>node10</title>
<ellipse fill="none" stroke="black" cx="1243.24" cy="-18" rx="88.28" ry="18"/>
<text text-anchor="middle" x="1243.24" y="-14.3" font-family="Times,serif" font-size="14.00">racket&#45;chipmunk</text>
</g>
<!-- node12 -->
<g id="node13" class="node">
<title>node12</title>
<ellipse fill="none" stroke="black" cx="954.24" cy="-306" rx="87.18" ry="18"/>
<text text-anchor="middle" x="954.24" y="-302.3" font-family="Times,serif" font-size="14.00">colors&#45;as&#45;strings</text>
</g>
<!-- node13&#45;&gt;node1 -->
<g id="edge29" class="edge">
<title>node13&#45;&gt;node1</title>
<path fill="none" stroke="black" d="M1102.66,-363.83C1133.25,-352.13 1178.01,-335.01 1210.4,-322.62"/>
<polygon fill="black" stroke="black" points="1211.94,-325.78 1220.03,-318.94 1209.44,-319.24 1211.94,-325.78"/>
</g>
<!-- node13&#45;&gt;node12 -->
<g id="edge31" class="edge">
<title>node13&#45;&gt;node12</title>
<path fill="none" stroke="black" d="M1043.51,-361.81C1027.78,-352.15 1007.17,-339.5 989.71,-328.78"/>
<polygon fill="black" stroke="black" points="991.27,-325.63 980.92,-323.38 987.61,-331.6 991.27,-325.63"/>
</g>
<!-- node13&#45;&gt;node14 -->
<g id="edge28" class="edge">
<title>node13&#45;&gt;node14</title>
<path fill="none" stroke="black" d="M1068.44,-359.95C1068.73,-333.29 1069.24,-280.12 1069.24,-235 1069.24,-235 1069.24,-235 1069.24,-161 1069.24,-28.36 1211.84,-69.25 1340.24,-36 1343.83,-35.07 1347.53,-34.05 1351.24,-32.97"/>
<polygon fill="black" stroke="black" points="1352.4,-36.28 1360.98,-30.06 1350.4,-29.57 1352.4,-36.28"/>
</g>
<!-- node13&#45;&gt;node16 -->
<g id="edge27" class="edge">
<title>node13&#45;&gt;node16</title>
<path fill="none" stroke="black" d="M1025.32,-366.75C975.39,-354.82 892.59,-335.03 836.05,-321.53"/>
<polygon fill="black" stroke="black" points="836.7,-318.08 826.16,-319.16 835.07,-324.89 836.7,-318.08"/>
</g>
<!-- node18 -->
<g id="node19" class="node">
<title>node18</title>
<ellipse fill="none" stroke="black" cx="1143.24" cy="-306" rx="46.29" ry="18"/>
<text text-anchor="middle" x="1143.24" y="-302.3" font-family="Times,serif" font-size="14.00">ts&#45;icons</text>
</g>
<!-- node13&#45;&gt;node18 -->
<g id="edge26" class="edge">
<title>node13&#45;&gt;node18</title>
<path fill="none" stroke="black" d="M1085.64,-360.76C1095.46,-351.6 1107.89,-340 1118.69,-329.92"/>
<polygon fill="black" stroke="black" points="1121.28,-332.29 1126.2,-322.91 1116.5,-327.17 1121.28,-332.29"/>
</g>
<!-- node13&#45;&gt;node21 -->
<g id="edge30" class="edge">
<title>node13&#45;&gt;node21</title>
<path fill="none" stroke="black" d="M1113.71,-367.76C1161.4,-357.84 1238.42,-341.18 1304.24,-324 1308.01,-323.02 1311.91,-321.95 1315.81,-320.85"/>
<polygon fill="black" stroke="black" points="1316.82,-324.21 1325.47,-318.08 1314.89,-317.48 1316.82,-324.21"/>
</g>
<!-- node17 -->
<g id="node18" class="node">
<title>node17</title>
<ellipse fill="none" stroke="black" cx="928.24" cy="-522" rx="94.48" ry="18"/>
<text text-anchor="middle" x="928.24" y="-518.3" font-family="Times,serif" font-size="14.00">healer&#45;zoo&#45;friends</text>
</g>
<!-- node17&#45;&gt;node13 -->
<g id="edge32" class="edge">
<title>node17&#45;&gt;node13</title>
<path fill="none" stroke="black" d="M936.26,-504.06C945.91,-484.93 963.56,-453.65 985.24,-432 998.27,-418.99 1015.01,-407.55 1030.05,-398.66"/>
<polygon fill="black" stroke="black" points="1032.2,-401.47 1039.14,-393.46 1028.72,-395.39 1032.2,-401.47"/>
</g>
<!-- node17&#45;&gt;node16 -->
<g id="edge33" class="edge">
<title>node17&#45;&gt;node16</title>
<path fill="none" stroke="black" d="M915.98,-503.85C889.06,-466.19 824.67,-376.13 793.19,-332.1"/>
<polygon fill="black" stroke="black" points="796.01,-330.03 787.35,-323.94 790.32,-334.11 796.01,-330.03"/>
</g>
<!-- node17&#45;&gt;node26 -->
<g id="edge34" class="edge">
<title>node17&#45;&gt;node26</title>
<path fill="none" stroke="black" d="M960.13,-504.94C980.1,-494.88 1006,-481.84 1027.32,-471.1"/>
<polygon fill="black" stroke="black" points="1029.1,-474.13 1036.46,-466.5 1025.95,-467.88 1029.1,-474.13"/>
</g>
<!-- node19 -->
<g id="node20" class="node">
<title>node19</title>
<ellipse fill="none" stroke="black" cx="1361.24" cy="-234" rx="145.67" ry="18"/>
<text text-anchor="middle" x="1361.24" y="-230.3" font-family="Times,serif" font-size="14.00">game&#45;engine&#45;demos&#45;common</text>
</g>
<!-- node19&#45;&gt;node5 -->
<g id="edge35" class="edge">
<title>node19&#45;&gt;node5</title>
<path fill="none" stroke="black" d="M1361.24,-215.7C1361.24,-207.98 1361.24,-198.71 1361.24,-190.11"/>
<polygon fill="black" stroke="black" points="1364.74,-190.1 1361.24,-180.1 1357.74,-190.1 1364.74,-190.1"/>
</g>
<!-- node19&#45;&gt;node23 -->
<g id="edge36" class="edge">
<title>node19&#45;&gt;node23</title>
<path fill="none" stroke="black" d="M1313.24,-216.92C1295.08,-208.58 1275.79,-196.58 1263.24,-180 1249.83,-162.29 1245.11,-137.27 1243.59,-118.27"/>
<polygon fill="black" stroke="black" points="1247.07,-117.94 1243.02,-108.15 1240.09,-118.32 1247.07,-117.94"/>
</g>
<!-- node20 -->
<g id="node21" class="node">
<title>node20</title>
<ellipse fill="none" stroke="black" cx="1027.24" cy="-594" rx="65.79" ry="18"/>
<text text-anchor="middle" x="1027.24" y="-590.3" font-family="Times,serif" font-size="14.00">ts&#45;k2&#45;healer</text>
</g>
<!-- node20&#45;&gt;node0 -->
<g id="edge38" class="edge">
<title>node20&#45;&gt;node0</title>
<path fill="none" stroke="black" d="M1091.15,-589.53C1207.33,-582.82 1460.78,-566.37 1673.24,-540 1681.78,-538.94 1690.71,-537.68 1699.56,-536.33"/>
<polygon fill="black" stroke="black" points="1700.17,-539.78 1709.52,-534.78 1699.1,-532.86 1700.17,-539.78"/>
</g>
<!-- node20&#45;&gt;node2 -->
<g id="edge39" class="edge">
<title>node20&#45;&gt;node2</title>
<path fill="none" stroke="black" d="M1093,-593.39C1282.23,-593.89 1818.34,-590.77 1877.24,-540 1907.88,-513.59 1896.24,-491.45 1896.24,-451 1896.24,-451 1896.24,-451 1896.24,-233 1896.24,-169.29 1699.06,-122.19 1596.15,-101.95"/>
<polygon fill="black" stroke="black" points="1596.68,-98.48 1586.2,-100.01 1595.35,-105.35 1596.68,-98.48"/>
</g>
<!-- node20&#45;&gt;node3 -->
<g id="edge40" class="edge">
<title>node20&#45;&gt;node3</title>
<path fill="none" stroke="black" d="M968.05,-586.08C886.66,-576.45 735.69,-558.12 607.24,-540 598.56,-538.78 589.5,-537.45 580.47,-536.09"/>
<polygon fill="black" stroke="black" points="580.73,-532.59 570.31,-534.54 579.68,-539.51 580.73,-532.59"/>
</g>
<!-- node20&#45;&gt;node4 -->
<g id="edge42" class="edge">
<title>node20&#45;&gt;node4</title>
<path fill="none" stroke="black" d="M1050.43,-576.76C1063.84,-567.38 1080.9,-555.44 1095.54,-545.19"/>
<polygon fill="black" stroke="black" points="1097.64,-547.99 1103.83,-539.39 1093.63,-542.26 1097.64,-547.99"/>
</g>
<!-- node20&#45;&gt;node6 -->
<g id="edge44" class="edge">
<title>node20&#45;&gt;node6</title>
<path fill="none" stroke="black" d="M962.29,-591.02C822.29,-586.27 481.79,-572.16 198.24,-540 189.3,-538.99 179.95,-537.73 170.68,-536.37"/>
<polygon fill="black" stroke="black" points="171.09,-532.89 160.68,-534.86 170.05,-539.82 171.09,-532.89"/>
</g>
<!-- node20&#45;&gt;node7 -->
<g id="edge37" class="edge">
<title>node20&#45;&gt;node7</title>
<path fill="none" stroke="black" d="M978.31,-581.99C926.56,-570.34 844.48,-551.86 785.97,-538.7"/>
<polygon fill="black" stroke="black" points="786.59,-535.25 776.07,-536.47 785.05,-542.08 786.59,-535.25"/>
</g>
<!-- node20&#45;&gt;node8 -->
<g id="edge45" class="edge">
<title>node20&#45;&gt;node8</title>
<path fill="none" stroke="black" d="M963.19,-589.64C848,-583.17 598.39,-567.15 389.24,-540 381.25,-538.96 372.9,-537.72 364.62,-536.39"/>
<polygon fill="black" stroke="black" points="365,-532.91 354.57,-534.73 363.86,-539.81 365,-532.91"/>
</g>
<!-- node20&#45;&gt;node17 -->
<g id="edge41" class="edge">
<title>node20&#45;&gt;node17</title>
<path fill="none" stroke="black" d="M1004.28,-576.76C991.1,-567.45 974.36,-555.61 959.94,-545.41"/>
<polygon fill="black" stroke="black" points="961.95,-542.55 951.77,-539.63 957.91,-548.26 961.95,-542.55"/>
</g>
<!-- node24 -->
<g id="node25" class="node">
<title>node24</title>
<ellipse fill="none" stroke="black" cx="1338.24" cy="-522" rx="106.68" ry="18"/>
<text text-anchor="middle" x="1338.24" y="-518.3" font-family="Times,serif" font-size="14.00">healer&#45;farm&#45;enemies</text>
</g>
<!-- node20&#45;&gt;node24 -->
<g id="edge46" class="edge">
<title>node20&#45;&gt;node24</title>
<path fill="none" stroke="black" d="M1076.18,-581.99C1127.52,-570.43 1208.72,-552.15 1267.13,-539.01"/>
<polygon fill="black" stroke="black" points="1268.04,-542.39 1277.03,-536.78 1266.51,-535.56 1268.04,-542.39"/>
</g>
<!-- node25 -->
<g id="node26" class="node">
<title>node25</title>
<ellipse fill="none" stroke="black" cx="1563.24" cy="-522" rx="100.98" ry="18"/>
<text text-anchor="middle" x="1563.24" y="-518.3" font-family="Times,serif" font-size="14.00">healer&#45;farm&#45;friends</text>
</g>
<!-- node20&#45;&gt;node25 -->
<g id="edge43" class="edge">
<title>node20&#45;&gt;node25</title>
<path fill="none" stroke="black" d="M1086.73,-586.21C1169.3,-576.65 1323.3,-558.33 1454.24,-540 1462.85,-538.79 1471.84,-537.48 1480.8,-536.14"/>
<polygon fill="black" stroke="black" points="1481.52,-539.57 1490.88,-534.61 1480.47,-532.65 1481.52,-539.57"/>
</g>
<!-- node21&#45;&gt;node2 -->
<g id="edge48" class="edge">
<title>node21&#45;&gt;node2</title>
<path fill="none" stroke="black" d="M1408.41,-301.89C1443.73,-296.91 1490.24,-284.19 1516.24,-252 1547.01,-213.9 1544.73,-153.22 1540.11,-118.25"/>
<polygon fill="black" stroke="black" points="1543.56,-117.65 1538.64,-108.27 1536.64,-118.68 1543.56,-117.65"/>
</g>
<!-- node21&#45;&gt;node19 -->
<g id="edge47" class="edge">
<title>node21&#45;&gt;node19</title>
<path fill="none" stroke="black" d="M1361.24,-287.7C1361.24,-279.98 1361.24,-270.71 1361.24,-262.11"/>
<polygon fill="black" stroke="black" points="1364.74,-262.1 1361.24,-252.1 1357.74,-262.1 1364.74,-262.1"/>
</g>
<!-- node21&#45;&gt;node23 -->
<g id="edge49" class="edge">
<title>node21&#45;&gt;node23</title>
<path fill="none" stroke="black" d="M1325.21,-293.84C1280.56,-279.84 1209.85,-257.05 1206.24,-252 1176.97,-211.05 1205.22,-150.58 1225.88,-116.6"/>
<polygon fill="black" stroke="black" points="1229.09,-118.08 1231.46,-107.76 1223.16,-114.35 1229.09,-118.08"/>
</g>
<!-- node22&#45;&gt;node13 -->
<g id="edge50" class="edge">
<title>node22&#45;&gt;node13</title>
<path fill="none" stroke="black" d="M1369.16,-437.68C1301.49,-424.48 1190.48,-402.84 1123.88,-389.85"/>
<polygon fill="black" stroke="black" points="1124.47,-386.4 1113.98,-387.92 1123.13,-393.27 1124.47,-386.4"/>
</g>
<!-- node22&#45;&gt;node21 -->
<g id="edge51" class="edge">
<title>node22&#45;&gt;node21</title>
<path fill="none" stroke="black" d="M1419.28,-431.87C1407.88,-407.35 1386.82,-362.03 1373.45,-333.26"/>
<polygon fill="black" stroke="black" points="1376.62,-331.78 1369.23,-324.19 1370.27,-334.73 1376.62,-331.78"/>
</g>
<!-- node23&#45;&gt;node10 -->
<g id="edge52" class="edge">
<title>node23&#45;&gt;node10</title>
<path fill="none" stroke="black" d="M1243.24,-71.7C1243.24,-63.98 1243.24,-54.71 1243.24,-46.11"/>
<polygon fill="black" stroke="black" points="1246.74,-46.1 1243.24,-36.1 1239.74,-46.1 1246.74,-46.1"/>
</g>
<!-- node24&#45;&gt;node13 -->
<g id="edge53" class="edge">
<title>node24&#45;&gt;node13</title>
<path fill="none" stroke="black" d="M1303.95,-504.78C1282.59,-494.53 1254.64,-480.84 1230.24,-468 1201.36,-452.81 1194.82,-447.76 1166.24,-432 1145.96,-420.81 1123.2,-408.49 1104.73,-398.55"/>
<polygon fill="black" stroke="black" points="1106.23,-395.38 1095.77,-393.73 1102.92,-401.55 1106.23,-395.38"/>
</g>
<!-- node24&#45;&gt;node16 -->
<g id="edge54" class="edge">
<title>node24&#45;&gt;node16</title>
<path fill="none" stroke="black" d="M1322.88,-504.02C1291.06,-470.11 1214.08,-394.31 1132.24,-360 1018.97,-312.51 979.37,-344.34 858.24,-324 851.96,-322.95 845.43,-321.76 838.91,-320.52"/>
<polygon fill="black" stroke="black" points="839.2,-317.01 828.71,-318.54 837.86,-323.88 839.2,-317.01"/>
</g>
<!-- node24&#45;&gt;node22 -->
<g id="edge55" class="edge">
<title>node24&#45;&gt;node22</title>
<path fill="none" stroke="black" d="M1359.79,-504.05C1371.35,-494.96 1385.76,-483.63 1398.29,-473.77"/>
<polygon fill="black" stroke="black" points="1400.51,-476.48 1406.2,-467.55 1396.18,-470.98 1400.51,-476.48"/>
</g>
<!-- node25&#45;&gt;node13 -->
<g id="edge56" class="edge">
<title>node25&#45;&gt;node13</title>
<path fill="none" stroke="black" d="M1491.3,-509.39C1439.34,-500.23 1367.78,-486 1306.24,-468 1263.3,-455.44 1254.12,-447.73 1212.24,-432 1179.11,-419.56 1141.59,-405.76 1113.16,-395.36"/>
<polygon fill="black" stroke="black" points="1114.09,-391.98 1103.5,-391.83 1111.69,-398.55 1114.09,-391.98"/>
</g>
<!-- node25&#45;&gt;node16 -->
<g id="edge57" class="edge">
<title>node25&#45;&gt;node16</title>
<path fill="none" stroke="black" d="M1487.7,-510.09C1443.22,-501.97 1386.58,-488.66 1339.24,-468 1260.27,-433.53 1259.14,-389.66 1178.24,-360 1043.87,-310.73 999.6,-346.38 858.24,-324 851.7,-322.96 844.9,-321.77 838.12,-320.5"/>
<polygon fill="black" stroke="black" points="838.73,-317.05 828.25,-318.6 837.4,-323.92 838.73,-317.05"/>
</g>
<!-- node25&#45;&gt;node22 -->
<g id="edge58" class="edge">
<title>node25&#45;&gt;node22</title>
<path fill="none" stroke="black" d="M1531.7,-504.76C1512.37,-494.82 1487.47,-482 1466.83,-471.38"/>
<polygon fill="black" stroke="black" points="1468.17,-468.13 1457.68,-466.67 1464.97,-474.35 1468.17,-468.13"/>
</g>
<!-- node26&#45;&gt;node13 -->
<g id="edge59" class="edge">
<title>node26&#45;&gt;node13</title>
<path fill="none" stroke="black" d="M1067.49,-431.7C1067.6,-423.98 1067.73,-414.71 1067.85,-406.11"/>
<polygon fill="black" stroke="black" points="1071.35,-406.15 1068,-396.1 1064.35,-406.05 1071.35,-406.15"/>
</g>
<!-- node26&#45;&gt;node21 -->
<g id="edge60" class="edge">
<title>node26&#45;&gt;node21</title>
<path fill="none" stroke="black" d="M1098.98,-433.67C1153.56,-407.31 1264.92,-353.52 1323.42,-325.27"/>
<polygon fill="black" stroke="black" points="1325.2,-328.3 1332.68,-320.79 1322.16,-321.99 1325.2,-328.3"/>
</g>
</g>
</svg>
